<?xml version="1.0" encoding="UTF-8" standalone="no"?>
<svg
   xmlns:dc="http://purl.org/dc/elements/1.1/"
   xmlns:cc="http://creativecommons.org/ns#"
   xmlns:rdf="http://www.w3.org/1999/02/22-rdf-syntax-ns#"
   xmlns:svg="http://www.w3.org/2000/svg"
   xmlns="http://www.w3.org/2000/svg"
   xmlns:sodipodi="http://sodipodi.sourceforge.net/DTD/sodipodi-0.dtd"
   xmlns:inkscape="http://www.inkscape.org/namespaces/inkscape"
   height="54.379086"
   width="72.129761"
   id="svg2"
   version="1.1"
   inkscape:version="0.48.4 r9939"
   sodipodi:docname="cameraMarker.svg"
   inkscape:export-filename="/home/danbot/version-control/FEND/hoodmap/images/icons/cameraMarker.svg.png"
   inkscape:export-xdpi="300"
   inkscape:export-ydpi="300">
  <metadata
     id="metadata10">
    <rdf:RDF>
      <cc:Work
         rdf:about="">
        <dc:format>image/svg+xml</dc:format>
        <dc:type
           rdf:resource="http://purl.org/dc/dcmitype/StillImage" />
        <dc:title></dc:title>
      </cc:Work>
    </rdf:RDF>
  </metadata>
  <defs
     id="defs8" />
  <sodipodi:namedview
     pagecolor="#ffffff"
     bordercolor="#666666"
     borderopacity="1"
     objecttolerance="10"
     gridtolerance="10"
     guidetolerance="10"
     inkscape:pageopacity="0"
     inkscape:pageshadow="2"
     inkscape:window-width="1855"
     inkscape:window-height="1056"
     id="namedview6"
     showgrid="false"
     fit-margin-top="0"
     fit-margin-left="0"
     fit-margin-right="0"
     fit-margin-bottom="0"
     inkscape:zoom="0.99999999"
     inkscape:cx="-254.95186"
     inkscape:cy="53.197917"
     inkscape:window-x="1431"
     inkscape:window-y="24"
     inkscape:window-maximized="1"
     inkscape:current-layer="svg2" />
  <path
     d="m 0,54.379084 0,-45.221978 21.272634,0 L 23.526689,0 l 26.062513,0 2.254055,9.157106 20.286502,0 0,45.221978 -72.129759,0 z M 15.919255,29.443592 q 0,8.452718 5.987292,14.369597 5.987313,5.916897 14.36962,5.916897 8.38229,0 14.299193,-5.916897 5.916895,-5.916879 5.916895,-14.369597 0,-8.452687 -5.916895,-14.369589 -5.916903,-5.916897 -14.299193,-5.916897 -8.382307,0 -14.36962,5.916897 -5.987292,5.916902 -5.987292,14.369589 z m 6.057782,0 q 0,-5.916884 4.155947,-10.143245 4.155948,-4.226344 10.072773,-4.226344 5.916823,0 10.143259,4.226344 4.226416,4.226361 4.226344,10.143245 -8e-5,5.916897 -4.226344,10.072781 -4.226288,4.155874 -10.143259,4.15595 -5.916975,7.9e-5 -10.072773,-4.15595 -4.155816,-4.156017 -4.155947,-10.072781 z m 38.037177,-10.00236 10.28412,0 0,-5.916897 -10.28412,0 0,5.916897 z"
     id="path4"
     inkscape:connector-curvature="0"
     style="fill:#ab1010;fill-opacity:1" />
</svg>
