<?xml version="1.0" encoding="UTF-8" standalone="no"?>
<!-- Generator: Adobe Illustrator 16.2.1, SVG Export Plug-In . SVG Version: 6.00 Build 0)  -->

<svg
   xmlns:dc="http://purl.org/dc/elements/1.1/"
   xmlns:cc="http://creativecommons.org/ns#"
   xmlns:rdf="http://www.w3.org/1999/02/22-rdf-syntax-ns#"
   xmlns:svg="http://www.w3.org/2000/svg"
   xmlns="http://www.w3.org/2000/svg"
   xmlns:sodipodi="http://sodipodi.sourceforge.net/DTD/sodipodi-0.dtd"
   xmlns:inkscape="http://www.inkscape.org/namespaces/inkscape"
   version="1.1"
   id="Layer_1"
   x="0px"
   y="0px"
   width="18.815201"
   height="37.647228"
   viewBox="0 0 18.815201 37.647228"
   xml:space="preserve"
   inkscape:version="0.48.4 r9939"
   sodipodi:docname="locMarker.svg"><metadata
     id="metadata9"><rdf:RDF><cc:Work
         rdf:about=""><dc:format>image/svg+xml</dc:format><dc:type
           rdf:resource="http://purl.org/dc/dcmitype/StillImage" /></cc:Work></rdf:RDF></metadata><defs
     id="defs7" /><sodipodi:namedview
     pagecolor="#ffffff"
     bordercolor="#666666"
     borderopacity="1"
     objecttolerance="10"
     gridtolerance="10"
     guidetolerance="10"
     inkscape:pageopacity="0"
     inkscape:pageshadow="2"
     inkscape:window-width="640"
     inkscape:window-height="480"
     id="namedview5"
     showgrid="false"
     fit-margin-top="0"
     fit-margin-left="0"
     fit-margin-right="0"
     fit-margin-bottom="0"
     inkscape:zoom="1"
     inkscape:cx="-38.576757"
     inkscape:cy="79.647144"
     inkscape:window-x="2558"
     inkscape:window-y="232"
     inkscape:window-maximized="0"
     inkscape:current-layer="Layer_1" /><path
     d="m 15.77319,16.47064 c 0,0 0,0 0,0 -0.10084,-0.042 -0.20169,-0.084 -0.29412,-0.14286 -0.58824,-0.33613 -1.02522,-0.91597 -1.16808,-1.61345 L 12.75636,4.82351 12.73956,4.33612 c 0,-0.59665 0.34455,-0.85715 0.84034,-1.09244 l 0,0 c 0.0588,-0.0252 0.11765,-0.0504 0.17648,-0.0756 C 14.36142,2.88237 14.77319,2.51262 14.77319,1.79833 14.77319,0.10924 14.22697,0 13.24377,0 H 5.57145 C 4.58826,0 4.04204,0.10084 4.04204,1.79833 c 0,0.71429 0.41176,1.08404 1.0168,1.36975 0.0588,0.0252 0.11766,0.042 0.17648,0.0756 0,0 0,0 0,0 0.4958,0.24369 0.84034,0.5042 0.84034,1.09244 l -0.0168,0.48739 -1.55463,9.89082 c -0.14286,0.69748 -0.57984,1.27732 -1.16808,1.61345 -0.0924,0.0588 -0.19328,0.10084 -0.29412,0.14286 0,0 0,0 0,0 C 1.38656,17.32779 0,19.05889 0,21.0673 c 0,1.33615 0.29412,1.78993 1.27731,1.78993 h 6.78156 l 1.00837,14.79 h 0.67228 l 1.0084,-14.79 h 6.78996 c 0.9832,0 1.27732,-0.39496 1.27732,-1.78993 0,-2.00841 -1.38656,-3.73951 -3.04203,-4.59666 z"
     id="path3"
     inkscape:connector-curvature="0"
     style="fill:#ff8c00" /></svg>